<?xml version="1.0" encoding="UTF-8"?>
<svg width="1920" height="1080" version="1.1" viewBox="0 0 508 285.75001" xmlns="http://www.w3.org/2000/svg" xmlns:cc="http://creativecommons.org/ns#" xmlns:dc="http://purl.org/dc/elements/1.1/" xmlns:rdf="http://www.w3.org/1999/02/22-rdf-syntax-ns#">
<defs>
<style type="text/css"><![CDATA[
    .fil3 {fill:none}
    .fil5 {fill:#FEFEFE}
    .fil2 {fill:#10814B}
    .fil1 {fill:#56991C}
    .fil0 {fill:#70C836}
    .fil4 {fill:#FEFEFE;fill-rule:nonzero}
   ]]></style>
</defs>
<metadata>
<rdf:RDF>
<cc:Work rdf:about="">
<dc:format>image/svg+xml</dc:format>
<dc:type rdf:resource="http://purl.org/dc/dcmitype/StillImage"/>
<dc:title/>
</cc:Work>
</rdf:RDF>
</metadata>
<g transform="translate(0 -11.25)">
<rect x="4.4444e-6" y="11.25" width="508" height="285.75" fill="#3e474a"/>
<g transform="matrix(1 0 0 1 -.00068425 -.00055064)" fill-rule="evenodd">
<path d="m177.81 198.32-30.071-17.847c-2.9412-1.7462-4.7683-5.0035-4.7683-8.5023v-35.699c0-3.4988 1.8271-6.7561 4.7673-8.5013l30.072-17.85c1.4417-0.8558 3.084-1.3084 4.7494-1.3084 1.6643 0 3.3066 0.45257 4.7494 1.3084l30.071 17.85c2.4781 1.4711 4.1498 4.0186 4.6203 6.8758-0.99756-2.1285-3.2468-2.707-5.8677-1.1761l-28.448 17.572c-3.5471 2.0739-6.1628 4.4008-6.1649 8.6777v35.054c-2e-3 2.5611 1.0322 4.2202 2.621 4.7011-0.52188 0.0903-1.048 0.15331-1.5803 0.15331-1.6654 0-3.3077-0.45257-4.7494-1.3084m40.62-72.377-30.071-17.849c-1.7946-1.0658-3.7981-1.5982-5.8005-1.5982-2.0035 0-4.007 0.53238-5.8016 1.5982l-30.071 17.849c-3.588 2.1306-5.7995 6.0683-5.7995 10.329v35.699c0 4.2601 2.2114 8.1988 5.8005 10.329l30.071 17.848c1.7956 1.0648 3.797 1.5971 5.8005 1.5971s4.0049-0.53238 5.7995-1.5971l30.072-17.848c3.5891-2.1306 5.8005-6.0693 5.8005-10.329v-35.699c0-4.2611-2.2114-8.1988-5.8005-10.329" fill="#fff"/>
<path d="m210.55 175.43-7.488 4.4816c-0.19846 0.11551-0.34442 0.24572-0.34547 0.48408v1.9594c0 0.23941 0.16066 0.33917 0.35912 0.22261l7.6035-4.6213c0.19846-0.1155 0.22891-0.33707 0.22996-0.57543v-1.7284c0-0.23837-0.16066-0.33812-0.35912-0.22262" fill="#47b353"/>
<path d="m194.61 158.93c0.24256-0.12285 0.44207 0.0284 0.44522 0.34547l0.0252 2.5905c1.0847-0.43158 2.0266-0.54709 2.8803-0.34967 0.18481 0.0493 0.26672 0.30136 0.19111 0.60063l-0.57018 2.2954c-0.0441 0.17326-0.14175 0.34862-0.25936 0.45782-0.0494 0.0483-0.0998 0.0861-0.15016 0.11131-0.0767 0.0388-0.15226 0.0515-0.22471 0.0368-0.38957-0.0882-1.3157-0.29087-2.7732 0.44733-1.5289 0.77389-2.0634 2.1022-2.0529 3.0882 0.0126 1.1771 0.61638 1.5341 2.7018 1.5698 2.7784 0.0462 3.9787 1.2601 4.0081 4.0585 0.0283 2.748-1.4386 5.6987-3.6826 7.5069l0.0493 2.5642c3e-3 0.30872-0.19741 0.66259-0.43997 0.78544l-1.5184 0.8747c-0.24361 0.12286-0.44312-0.0283-0.44627-0.33707l-0.0262-2.5222c-1.301 0.54078-2.6188 0.67099-3.461 0.33287-0.15855-0.062-0.22681-0.29612-0.16381-0.56283l0.55024-2.3185c0.0441-0.18271 0.1407-0.36542 0.27196-0.48198 0.0462-0.0451 0.0945-0.0798 0.14281-0.10395 0.0872-0.0441 0.17221-0.0536 0.24466-0.0263 0.90725 0.30556 2.0676 0.16276 3.1838-0.40218 1.4176-0.71719 2.3658-2.1631 2.3511-3.5996-0.0137-1.3031-0.71929-1.845-2.4351-1.8576-2.1841 6e-3 -4.2202-0.42422-4.2538-3.6395-0.0273-2.6472 1.3493-5.4015 3.5282-7.1436l-0.0273-2.5884c-3e-3 -0.31817 0.19111-0.66784 0.44103-0.79385z" fill="#3e474a"/>
<path d="m244.35 156.81h6.6269c0.9356 0.0294 1.8114 0.18061 2.6041 0.44733 0.75499 0.25201 1.4186 0.61638 1.9741 1.0816 0.54288 0.45572 0.95976 0.99965 1.2706 1.658 0.30452 0.64999 0.45258 1.4207 0.43683 2.3185 0 0.8474-0.16696 1.6024-0.49773 2.245-0.34127 0.66364-0.78964 1.2076-1.3661 1.6612-0.60168 0.47147-1.3084 0.84634-2.0991 1.1141-0.80645 0.27196-1.6728 0.41897-2.5485 0.43262h-6.4012zm11.384-9.7645c-0.34547 0.58698-0.78439 1.0679-1.342 1.469-0.57858 0.41478-1.2527 0.73924-2.0077 0.96081-0.78335 0.23206-1.595 0.35702-2.3836 0.37172h-5.6504v-9.3455h5.4824c0.881 0.0157 1.7515 0.12496 2.5894 0.32657 0.77074 0.18376 1.4554 0.47252 2.0329 0.85474 0.54078 0.35807 0.9608 0.80645 1.2853 1.3693 0.30977 0.53973 0.46728 1.2317 0.46728 2.056 0 0.76025-0.15541 1.3934-0.47358 1.9374zm7.3872 8.4677c-0.74974-0.90515-1.6538-1.6885-2.6871-2.328-0.12705-0.0777-0.25516-0.15331-0.38537-0.22786 0.8243-0.55023 1.5572-1.1981 2.182-1.9279 0.66784-0.78019 1.1981-1.6696 1.5793-2.6409 0.38327-0.97761 0.58803-2.0644 0.61008-3.2405 0.021-2.0392-0.40637-3.8338-1.2716-5.3354-0.85054-1.4764-2.0067-2.707-3.4347-3.6616-1.385-0.923-2.9801-1.6129-4.7421-2.0518-1.7063-0.42422-3.4757-0.64893-5.2765-0.66783h-12.037c-0.84005 0-1.5215 0.64788-1.5215 1.447v38.486c0 0.7991 0.68149 1.447 1.5215 1.447h12.97c1.867-0.0189 3.7056-0.30031 5.4645-0.83479 1.7862-0.54393 3.3906-1.3399 4.7694-2.3679 1.4113-1.0511 2.5516-2.3731 3.3896-3.9283 0.85159-1.5772 1.2727-3.4053 1.2517-5.4183 0-1.3021-0.21106-2.538-0.62583-3.6731-0.41477-1.1341-1.006-2.1684-1.7568-3.0756z" fill="#fff"/>
<path d="m287.79 157.7h-6.6448l3.3486-10.319zm0.33287-23.258c-0.20057-0.60064-0.7865-1.0081-1.4501-1.0081h-4.3084c-0.66049 0-1.2443 0.40427-1.447 1.0018l-13.066 38.487c-0.14911 0.43998-0.0683 0.9209 0.21841 1.2958 0.28667 0.37382 0.74344 0.59433 1.2296 0.59433h5.1432c0.66573 0 1.2548-0.41267 1.4522-1.0175l2.9202-8.9486h11.262l2.8688 8.9423c0.19531 0.60904 0.7865 1.0238 1.4554 1.0238h5.1148c0.48512 0 0.94085-0.21946 1.2275-0.59223 0.28666-0.37172 0.36857-0.8516 0.22156-1.2916z" fill="#fff"/>
<path d="m331.87 157c-0.68778-0.88205-1.4995-1.679-2.4162-2.3721-0.881-0.66784-1.8418-1.2727-2.8551-1.8019-0.9944-0.51873-2.0455-0.98496-3.125-1.3882-1.0375-0.38432-2.0886-0.73714-3.1386-1.0522-0.89045-0.25936-1.8439-0.56388-2.8341-0.9041-0.9188-0.31397-1.782-0.71194-2.5664-1.1834-0.70984-0.42633-1.3-0.95031-1.7557-1.5583-0.39483-0.52713-0.59434-1.1813-0.60694-1.9762 0-0.78859 0.15436-1.447 0.47358-2.0161 0.33392-0.59328 0.76864-1.0795 1.3294-1.4837 0.58069-0.42003 1.259-0.74135 2.0151-0.95451 1.7683-0.50087 3.7519-0.42632 5.1852 0.10606 0.776 0.28772 1.4522 0.69514 2.0067 1.2076 0.56284 0.52083 1.0228 1.1582 1.3682 1.8932 0.36332 0.77389 0.61323 1.6559 0.74239 2.6199 0.0956 0.72139 0.74239 1.2632 1.5089 1.2632h5.2808c0.40952 0 0.80119-0.15541 1.0868-0.43368 0.28666-0.27721 0.44312-0.65313 0.43472-1.0417-0.042-1.972-0.49878-3.7928-1.3588-5.4099-0.85055-1.595-1.9983-2.9748-3.4095-4.1015-1.3924-1.1099-3.0084-1.9815-4.803-2.5936-3.4053-1.1582-7.1898-1.2202-10.805-0.15016-1.7389 0.51558-3.3182 1.2832-4.6938 2.2786-1.4029 1.0144-2.5537 2.2765-3.4211 3.7477-0.89465 1.5163-1.3483 3.2478-1.3483 5.1484 0 1.9132 0.46097 3.6164 1.3693 5.0634 0.8621 1.3724 1.9878 2.5789 3.3455 3.5838 1.3073 0.96921 2.7722 1.7956 4.3525 2.4571 1.5173 0.63529 3.0294 1.1855 4.4974 1.6381 0.96395 0.29507 1.9689 0.62269 3.0147 0.98601 0.9503 0.33077 1.8324 0.74764 2.6199 1.2391 0.72244 0.45047 1.2958 0.98705 1.7494 1.6381 0.40007 0.57543 0.59433 1.2905 0.59433 2.1883 0 0.79804-0.16591 1.4501-0.50718 1.993-0.37277 0.59328-0.83899 1.07-1.4239 1.4575-0.60903 0.40112-1.3178 0.70354-2.1117 0.89675-1.9027 0.46623-3.9724 0.39272-5.6042-0.10816-0.8747-0.26776-1.6538-0.66783-2.3154-1.1897-0.65944-0.51978-1.2076-1.1666-1.6307-1.9206-0.43053-0.76654-0.72034-1.6738-0.8621-2.6934-0.0998-0.71929-0.74554-1.2569-1.5079-1.2569h-5.2534c-0.41162 0-0.80539 0.15751-1.091 0.43788-0.28666 0.28036-0.44207 0.65943-0.43052 1.05 0.063 2.0613 0.58698 3.9367 1.5583 5.5737 0.9482 1.5992 2.1999 2.9717 3.7193 4.0816 1.4921 1.0921 3.2048 1.9395 5.0886 2.518 1.866 0.57228 3.8002 0.8621 5.7491 0.8621 1.7431 0 3.5093-0.23627 5.2482-0.70144 1.7704-0.47358 3.3854-1.1939 4.7988-2.139 1.4491-0.9692 2.6472-2.1978 3.5597-3.6542 0.94505-1.5068 1.4239-3.2783 1.4239-5.2608 0-1.2989-0.20161-2.5128-0.59853-3.6059-0.39273-1.0784-0.94611-2.0802-1.6465-2.978" fill="#fff"/>
<path d="m365.59 133.43h-4.8649c-0.84005 0-1.5215 0.64683-1.5215 1.4459v15.101h-13.552v-15.101c0-0.7991-0.68043-1.4459-1.5205-1.4459h-4.8376c-0.84005 0-1.5215 0.64683-1.5215 1.4459v38.487c0 0.7991 0.68148 1.4459 1.5215 1.4459h4.8376c0.84005 0 1.5205-0.64683 1.5205-1.4459v-16.343h13.552v16.343c0 0.7991 0.68148 1.4459 1.5215 1.4459h4.8649c0.84005 0 1.5215-0.64683 1.5215-1.4459v-38.487c0-0.7991-0.68149-1.4459-1.5215-1.4459" fill="#fff"/>
<polygon transform="matrix(1.0501 0 0 1.0501 140.78 106.3)" points="95.243 70.857 95.243 71.596 93.49 71.596 93.49 76.286 92.553 76.286 92.553 71.596 90.812 71.596 90.812 70.857" fill="#fff"/>
<polygon transform="matrix(1.0501 0 0 1.0501 140.78 106.3)" points="97.782 73.863 97.782 76.286 96.868 76.286 96.868 70.857 97.782 70.857 97.782 73.128 99.723 73.128 99.723 70.857 100.64 70.857 100.64 76.286 99.723 76.286 99.723 73.863" fill="#fff"/>
<polygon transform="matrix(1.0501 0 0 1.0501 140.78 106.3)" points="106.43 75.556 106.43 76.286 102.74 76.286 102.74 70.858 106.4 70.858 106.4 71.596 103.68 71.596 103.68 73.128 106.03 73.128 106.03 73.852 103.68 73.852 103.68 75.556" fill="#fff"/>
<path d="m261.65 183.82v1.8166h1.0784c0.15646-2e-3 0.29927-0.0252 0.42842-0.0683 0.12916-0.043 0.23942-0.1029 0.33392-0.17851 0.0924-0.0756 0.16591-0.16801 0.21947-0.27826 0.0535-0.10921 0.0808-0.23102 0.0808-0.36752 0-0.14386-0.0231-0.27197-0.0704-0.38538-0.0473-0.11445-0.11446-0.21001-0.20162-0.28876-0.0882-0.0777-0.19531-0.13861-0.32131-0.18166-0.12601-0.0431-0.26777-0.0651-0.42423-0.0683zm0-0.71719h0.94715c0.14806-2e-3 0.28562-0.021 0.41373-0.0567 0.12705-0.0346 0.23731-0.0872 0.33076-0.15646 0.0935-0.0683 0.16801-0.15331 0.22262-0.25411 0.0546-0.10081 0.0819-0.21631 0.0819-0.34547 0-0.14386-0.0252-0.26672-0.0777-0.36962-0.0525-0.10081-0.12601-0.18481-0.22051-0.24992-0.0945-0.0641-0.20582-0.11235-0.33497-0.1428-0.12916-0.0305-0.27092-0.0462-0.42423-0.0494h-0.93875zm-0.9923 3.3014v-5.7008h1.9142c0.28877 3e-3 0.55758 0.0346 0.80855 0.0945 0.25201 0.0599 0.47147 0.1533 0.65943 0.27826s0.33497 0.28457 0.44208 0.47883c0.1071 0.19426 0.15961 0.42527 0.15646 0.69199-2e-3 0.28141-0.0851 0.52188-0.24677 0.72139-0.16171 0.20056-0.38012 0.35492-0.65418 0.46412 0.16696 0.0441 0.31606 0.10816 0.44627 0.19006s0.23941 0.18061 0.32762 0.29507c0.0872 0.11551 0.15541 0.24256 0.20161 0.38117 0.0462 0.14071 0.0704 0.28877 0.0704 0.44523 0 0.27091-0.0525 0.51032-0.1575 0.71614-0.10396 0.20581-0.24887 0.37802-0.43368 0.51662-0.18586 0.13861-0.40532 0.24362-0.65838 0.31502-0.25412 0.0725-0.52818 0.11026-0.8222 0.11236z" fill="#fff"/>
<path d="m269.77 183.19c-2e-3 -0.21421-0.0231-0.42737-0.062-0.63843-0.0378-0.21106-0.1029-0.40007-0.19321-0.56493-0.0914-0.16696-0.21106-0.30032-0.36017-0.40428-0.15016-0.1029-0.33707-0.15435-0.56178-0.15435-0.22261 0-0.40742 0.0514-0.55443 0.15435-0.14596 0.10396-0.26356 0.23837-0.34967 0.40533-0.0872 0.16696-0.14701 0.35492-0.18166 0.56598-0.0336 0.21001-0.0525 0.42212-0.0557 0.63633v0.73504c3e-3 0.21422 0.0231 0.42633 0.0577 0.63739 0.0368 0.21001 0.0966 0.39902 0.18376 0.56703 0.0861 0.16801 0.20371 0.30452 0.34967 0.40952 0.14701 0.10396 0.33182 0.15646 0.55443 0.15646 0.22471 0 0.41162-0.0525 0.56178-0.15646 0.14911-0.105 0.26882-0.24046 0.36017-0.40742 0.0903-0.16801 0.15436-0.35597 0.19111-0.56808 0.0368-0.21106 0.0578-0.42422 0.0599-0.63844zm0.9923 0.73504c0 0.33707-0.0451 0.66049-0.13651 0.96921-0.0903 0.30977-0.22576 0.58173-0.40532 0.81904-0.17956 0.23522-0.40427 0.42318-0.67519 0.56284-0.26986 0.13965-0.58593 0.20896-0.9482 0.20896-0.36017 0-0.67309-0.0704-0.93875-0.21106-0.26672-0.14071-0.48828-0.32972-0.66574-0.56494-0.17641-0.23626-0.30977-0.50822-0.39902-0.81694-0.0893-0.30767-0.13336-0.63004-0.13336-0.96711v-0.72769c0-0.22471 0.0189-0.44312 0.0599-0.65733 0.0389-0.21421 0.0987-0.41583 0.17641-0.60589 0.0788-0.18901 0.17641-0.36332 0.29191-0.52397 0.11656-0.16066 0.25412-0.29822 0.41162-0.41268 0.15856-0.1155 0.33707-0.20581 0.53553-0.27091 0.19952-0.0641 0.41793-0.0977 0.65734-0.0977 0.36227 0 0.67834 0.0704 0.94925 0.21211 0.26987 0.14071 0.49563 0.32972 0.67729 0.56493 0.18061 0.23732 0.31607 0.51033 0.40637 0.82115 0.0914 0.30977 0.13651 0.63319 0.13651 0.97025z" fill="#fff"/>
<path d="m276.62 180.7 8e-3 3.818c-3e-3 0.29191-0.0525 0.55968-0.14806 0.80014-0.0966 0.24152-0.23101 0.44838-0.40427 0.62059-0.17221 0.17221-0.38117 0.30556-0.62793 0.39902-0.24467 0.0935-0.51978 0.14071-0.8243 0.14071-0.29717 0-0.56598-0.0473-0.80749-0.14071-0.24152-0.0935-0.44838-0.22576-0.62164-0.39692s-0.30767-0.37802-0.40322-0.61954c-0.0966-0.24046-0.14596-0.50928-0.14806-0.80329l8e-3 -3.818h0.97131l7e-3 3.818c3e-3 0.17431 0.0263 0.33497 0.0704 0.48092 0.0441 0.14701 0.10711 0.27197 0.19006 0.37698 0.0819 0.10605 0.18376 0.18901 0.30662 0.24781 0.1218 0.0588 0.26356 0.0882 0.42632 0.0882 0.16381 0 0.30977-0.0294 0.43578-0.0882 0.126-0.0588 0.23206-0.14176 0.31711-0.24781 0.0851-0.10501 0.14911-0.22997 0.19426-0.37698 0.0431-0.14595 0.0662-0.30661 0.0693-0.48092l8e-3 -3.818z" fill="#fff"/>
<path d="m279.76 183.42h0.90935c0.16486 0 0.31606-0.0221 0.45362-0.0661 0.13651-0.0452 0.25517-0.10816 0.35597-0.19006 0.0998-0.083 0.17746-0.18271 0.23206-0.30242 0.0546-0.11761 0.083-0.25516 0.083-0.40847 0-0.15961-0.0263-0.30032-0.0788-0.42213-0.0525-0.1239-0.12705-0.22681-0.22471-0.31081-0.0966-0.083-0.21526-0.14596-0.35597-0.18901-0.13966-0.0431-0.29611-0.0662-0.46937-0.0683h-0.90515zm1.0038 0.75919h-1.0038v2.223h-0.98811v-5.6997h1.8933c0.30766 3e-3 0.59118 0.0399 0.85054 0.11236 0.25937 0.0714 0.48408 0.17851 0.67309 0.32027 0.19006 0.1428 0.33602 0.32026 0.43998 0.53447 0.105 0.21422 0.15645 0.46413 0.15645 0.75185 0 0.19321-0.0262 0.36857-0.0798 0.52608-0.0535 0.15855-0.12811 0.30136-0.22471 0.42947-0.0956 0.12706-0.21106 0.23941-0.34547 0.33602-0.13441 0.0977-0.28247 0.17956-0.44418 0.24676l1.2674 2.3962v0.0462h-1.0532z" fill="#fff"/>
<polygon transform="matrix(1.0501 0 0 1.0501 140.78 106.3)" points="137.07 70.857 138.02 70.857 139.87 74.583 139.88 70.857 140.83 70.857 140.83 76.286 139.88 76.286 138.02 72.551 138.02 76.286 137.07 76.286" fill="#fff"/>
<polygon transform="matrix(1.0501 0 0 1.0501 140.78 106.3)" points="146.62 75.556 146.62 76.286 142.93 76.286 142.93 70.858 146.6 70.858 146.6 71.596 143.87 71.596 143.87 73.128 146.22 73.128 146.22 73.852 143.87 73.852 143.87 75.556" fill="#fff"/>
<polygon transform="matrix(1.0501 0 0 1.0501 140.78 106.3)" points="149.01 73.546 149.01 74.265 152.15 74.265 152.15 73.546" fill="#fff"/>
<path d="m304.16 184.28h1.3745l-0.67834-2.2345zm1.6223 0.8033h-1.8733l-0.41163 1.3231h-1.0217l1.9479-5.7008h0.86839l1.9111 5.7008h-1.0175z" fill="#fff"/>
<path d="m312.92 185.69c-0.1008 0.11446-0.22051 0.22052-0.35807 0.31712s-0.29086 0.17956-0.46097 0.24991c-0.17011 0.0704-0.35492 0.12496-0.55338 0.16486-0.19951 0.0389-0.41163 0.0578-0.63634 0.0578-0.36017 0-0.67834-0.0662-0.95555-0.19951-0.27722-0.13231-0.51138-0.31397-0.70144-0.54498-0.19111-0.23207-0.33602-0.50403-0.43683-0.81695-0.0997-0.31292-0.1512-0.64999-0.15435-1.0102v-0.70354c0-0.36122 0.0494-0.69723 0.14805-1.0102 0.0987-0.31397 0.24047-0.58593 0.42633-0.81905 0.18586-0.23311 0.41267-0.41582 0.68149-0.54918 0.26881-0.13545 0.57648-0.20266 0.92195-0.20266 0.30976 0 0.58698 0.041 0.83164 0.12076 0.24467 0.0819 0.45468 0.19846 0.63004 0.35177 0.17536 0.15226 0.31502 0.33812 0.41792 0.55758 0.10291 0.21841 0.16801 0.46412 0.19531 0.73609h-0.9713c-0.0241-0.15436-0.063-0.29297-0.11551-0.41477-0.0525-0.12286-0.1218-0.22787-0.21001-0.31397-0.0882-0.0861-0.19426-0.15121-0.31922-0.19741-0.12495-0.0462-0.27196-0.0683-0.44207-0.0683-0.20896 0-0.38747 0.0483-0.53763 0.14596-0.14911 0.0987-0.27302 0.22997-0.37172 0.39587-0.0987 0.16591-0.17221 0.35807-0.21946 0.57544-0.0462 0.21841-0.0714 0.44627-0.0735 0.68358v0.71194c2e-3 0.23732 0.0284 0.46518 0.0756 0.68149 0.0483 0.21631 0.1239 0.40847 0.22681 0.57333 0.1029 0.16591 0.23521 0.29822 0.39692 0.39798 0.16276 0.0987 0.35702 0.15015 0.58488 0.15225 0.0935 0 0.19006-5e-3 0.28877-0.0168 0.0987-0.0126 0.19321-0.0315 0.28141-0.0567 0.0893-0.0273 0.17116-0.0598 0.24572-0.0998 0.0735-0.042 0.13441-0.0913 0.18061-0.15225l8e-3 -1.1393h-1.0826v-0.73084h2.0497z" fill="#fff"/>
<path d="m316.22 184.28h1.3745l-0.67834-2.2345zm1.6223 0.8033h-1.8733l-0.41162 1.3231h-1.0217l1.9479-5.7008h0.8684l1.9111 5.7008h-1.0175z" fill="#fff"/>
<polygon transform="matrix(1.0501 0 0 1.0501 140.78 106.3)" points="173.88 71.6 173.88 75.548 175.11 75.548 175.11 76.286 171.72 76.286 171.72 75.548 172.92 75.548 172.92 71.6 171.72 71.6 171.72 70.858 175.11 70.858 175.11 71.6" fill="#fff"/>
<polygon transform="matrix(1.0501 0 0 1.0501 140.78 106.3)" points="177.26 70.857 178.21 70.857 180.07 74.583 180.07 70.857 181.03 70.857 181.03 76.286 180.08 76.286 178.22 72.551 178.21 76.286 177.26 76.286" fill="#fff"/>
<path d="m342.16 184.94c0-0.13546-0.0294-0.25517-0.0882-0.35807-0.0599-0.10396-0.14281-0.19321-0.25201-0.27302-0.10816-0.0777-0.23627-0.14596-0.38642-0.20476-0.14911-0.0588-0.31187-0.11236-0.48828-0.16276-0.23521-0.0651-0.46833-0.14596-0.69724-0.24256-0.22996-0.0966-0.43367-0.21526-0.61323-0.35387-0.18061-0.13966-0.32552-0.30347-0.43683-0.49038-0.1113-0.18586-0.16696-0.40112-0.16696-0.64684 0-0.24571 0.0557-0.46517 0.16696-0.66048 0.11131-0.19426 0.26042-0.35807 0.44628-0.49458 0.18691-0.13546 0.40427-0.24046 0.65103-0.31397 0.24677-0.0725 0.50508-0.1092 0.7739-0.1092 0.28876 0 0.55758 0.043 0.80959 0.12705 0.25096 0.0851 0.47043 0.20477 0.65839 0.35702 0.18796 0.15226 0.33707 0.33497 0.44627 0.54708 0.11026 0.21317 0.16591 0.44943 0.16906 0.70774h-0.9881c-0.0136-0.14385-0.0462-0.27511-0.0966-0.39377-0.0514-0.11866-0.12286-0.22156-0.21421-0.30767-0.0924-0.0861-0.20371-0.15225-0.33602-0.19951-0.13126-0.0472-0.28352-0.0703-0.45678-0.0703-0.14805 0-0.28561 0.0189-0.41162 0.0546s-0.23521 0.0903-0.32762 0.16066c-0.0914 0.0704-0.16381 0.15541-0.21526 0.25412-0.0525 0.0998-0.0788 0.21211-0.0788 0.33706 0 0.13336 0.0357 0.24887 0.1071 0.34652 0.0714 0.0977 0.16486 0.18376 0.27932 0.25622 0.11551 0.0735 0.24886 0.13651 0.39797 0.19006 0.15016 0.0536 0.30557 0.10185 0.46728 0.14596 0.24991 0.0714 0.48827 0.1575 0.71614 0.26146 0.22786 0.10291 0.42842 0.22681 0.60168 0.37172 0.17221 0.14491 0.30977 0.31292 0.41162 0.50298 0.10081 0.19006 0.15226 0.40847 0.15226 0.65419 0 0.25306-0.0567 0.47567-0.16906 0.66888-0.11235 0.19321-0.26356 0.35597-0.45257 0.48513-0.19006 0.13021-0.40953 0.22891-0.65839 0.29612-0.24991 0.0661-0.51138 0.0998-0.78334 0.0998-0.18376 0-0.36542-0.0168-0.54708-0.0515-0.18166-0.0325-0.35492-0.084-0.52083-0.15226-0.16591-0.0672-0.32027-0.15121-0.46308-0.25201-0.14281-0.10081-0.26671-0.21737-0.37277-0.34862-0.105-0.13231-0.18901-0.27932-0.24886-0.44313-0.0609-0.16276-0.0924-0.34232-0.0945-0.53763h0.99126c0.0147 0.17221 0.0535 0.32132 0.1197 0.44943 0.0662 0.1281 0.15331 0.23521 0.26357 0.31922 0.11025 0.0851 0.23836 0.15015 0.38537 0.19321 0.14701 0.042 0.30872 0.064 0.48723 0.064 0.14911 0 0.28771-0.0178 0.41582-0.0504 0.12916-0.0347 0.24256-0.0851 0.33812-0.15121 0.0956-0.0672 0.17116-0.14911 0.22681-0.24782 0.0546-0.0977 0.0819-0.20896 0.0819-0.33391" fill="#fff"/>
<polygon transform="matrix(1.0501 0 0 1.0501 140.78 106.3)" points="195.4 73.863 195.4 76.286 194.48 76.286 194.48 70.857 195.4 70.857 195.4 73.128 197.34 73.128 197.34 70.857 198.26 70.857 198.26 76.286 197.34 76.286 197.34 73.863" fill="#fff"/>
<polygon transform="matrix(1.0501 0 0 1.0501 140.78 106.3)" points="204.04 75.556 204.04 76.286 200.35 76.286 200.35 70.858 204.02 70.858 204.02 71.596 201.3 71.596 201.3 73.128 203.64 73.128 203.64 73.852 201.3 73.852 201.3 75.556" fill="#fff"/>
<polygon transform="matrix(1.0501 0 0 1.0501 140.78 106.3)" points="206.13 76.286 206.13 70.858 207.07 70.858 207.07 75.556 209.79 75.556 209.79 76.286" fill="#fff"/>
<polygon transform="matrix(1.0501 0 0 1.0501 140.78 106.3)" points="211.87 76.286 211.87 70.858 212.82 70.858 212.82 75.556 215.54 75.556 215.54 76.286" fill="#fff"/>
</g>
</g>
</svg>
