<?xml version="1.0" encoding="UTF-8"?>
<svg width="1920" height="1080" version="1.1" viewBox="0 0 508 285.75001" xmlns="http://www.w3.org/2000/svg" xmlns:cc="http://creativecommons.org/ns#" xmlns:dc="http://purl.org/dc/elements/1.1/" xmlns:rdf="http://www.w3.org/1999/02/22-rdf-syntax-ns#">
<metadata>
<rdf:RDF>
<cc:Work rdf:about="">
<dc:format>image/svg+xml</dc:format>
<dc:type rdf:resource="http://purl.org/dc/dcmitype/StillImage"/>
<dc:title/>
</cc:Work>
</rdf:RDF>
</metadata>
<rect x="4.4444e-6" y="2.6949e-6" width="508" height="285.75" fill="#102433"/>
<g fill="#13fcab" stroke-width="3.1484" aria-label="CSS">
<path d="m206.19 185.46q-4.7348 2.5212-9.7156 3.751-4.9808 1.2913-10.576 1.2913-17.648 0-27.425-12.483-9.7156-12.483-9.7156-35.112 0-22.506 9.7771-35.05 9.8386-12.606 27.364-12.606 5.5957 0 10.576 1.2913 4.9808 1.2298 9.7156 3.751v12.729q-4.5504-3.751-9.7771-5.7187t-10.515-1.9677q-12.114 0-18.14 9.3467-6.0261 9.3467-6.0261 28.224 0 18.816 6.0261 28.163 6.0262 9.3467 18.14 9.3467 5.4112 0 10.576-1.9677 5.2268-1.9677 9.7156-5.7187z"/>
<path d="m278.2 100.05v12.606q-5.6572-3.628-11.376-5.4727-5.6572-1.8447-11.437-1.8447-8.7932 0-13.897 4.1199-5.1038 4.0584-5.1038 11.007 0 6.0876 3.3205 9.2852 3.382 3.1976 12.544 5.3497l6.5181 1.4758q12.913 3.0131 18.816 9.4697 5.9032 6.4566 5.9032 17.587 0 13.098-8.1168 19.985-8.1168 6.887-23.613 6.887-6.4566 0-12.975-1.4143-6.5181-1.3528-13.098-4.1199v-13.221q7.0715 4.4889 13.344 6.5796 6.3336 2.0907 12.729 2.0907 9.4082 0 14.635-4.1814 5.2268-4.2429 5.2268-11.806 0-6.887-3.628-10.515-3.5665-3.628-12.483-5.5957l-6.6411-1.5373q-12.79-2.8901-18.57-8.7318t-5.7802-15.68q0-12.298 8.2398-19.677 8.3013-7.4404 22.014-7.4404 5.2882 0 11.13 1.2298 5.8417 1.1683 12.298 3.5665z"/>
<path d="m353.95 100.05v12.606q-5.6572-3.628-11.376-5.4727-5.6572-1.8447-11.437-1.8447-8.7933 0-13.897 4.1199-5.1038 4.0584-5.1038 11.007 0 6.0876 3.3205 9.2852 3.382 3.1976 12.544 5.3497l6.5181 1.4758q12.913 3.0131 18.816 9.4697 5.9032 6.4566 5.9032 17.587 0 13.098-8.1168 19.985-8.1168 6.887-23.613 6.887-6.4566 0-12.975-1.4143-6.5181-1.3528-13.098-4.1199v-13.221q7.0715 4.4889 13.344 6.5796 6.3336 2.0907 12.729 2.0907 9.4082 0 14.635-4.1814 5.2268-4.2429 5.2268-11.806 0-6.887-3.628-10.515-3.5665-3.628-12.483-5.5957l-6.6411-1.5373q-12.79-2.8901-18.57-8.7318t-5.7802-15.68q0-12.298 8.2398-19.677 8.3013-7.4404 22.014-7.4404 5.2882 0 11.13 1.2298 5.8417 1.1683 12.298 3.5665z"/>
</g>
</svg>
