<?xml version="1.0" encoding="UTF-8"?>
<svg width="1920" height="1080" version="1.1" viewBox="0 0 508 285.75001" xmlns="http://www.w3.org/2000/svg" xmlns:cc="http://creativecommons.org/ns#" xmlns:dc="http://purl.org/dc/elements/1.1/" xmlns:rdf="http://www.w3.org/1999/02/22-rdf-syntax-ns#">
<metadata>
<rdf:RDF>
<cc:Work rdf:about="">
<dc:format>image/svg+xml</dc:format>
<dc:type rdf:resource="http://purl.org/dc/dcmitype/StillImage"/>
<dc:title/>
</cc:Work>
</rdf:RDF>
</metadata>
<g transform="translate(0 -11.25)">
<rect x="4.4444e-6" y="11.25" width="508" height="285.75" fill="#4b32c3"/>
<path d="m232.57 141.17 20.594-11.89c0.51537-0.29766 1.1507-0.29766 1.666 0l20.595 11.89c0.51495 0.29765 0.83302 0.84747 0.83302 1.4428v23.78c0 0.59489-0.31807 1.1451-0.83302 1.4432l-20.595 11.89c-0.51537 0.29766-1.1507 0.29766-1.666 0l-20.594-11.89c-0.51537-0.29765-0.83301-0.84789-0.83301-1.4432v-23.78c4.2e-4 -0.59531 0.31807-1.1451 0.83301-1.4428" fill="#8080f2" stroke-width=".42522"/>
<path d="m307.55 152-24.606-42.808c-0.89382-1.5478-2.545-2.6895-4.3322-2.6895h-49.214c-1.7876 0-3.4392 1.1417-4.333 2.6895l-24.606 42.714c-0.89382 1.5482-0.89382 3.5021 0 5.0504l24.606 42.457c0.89382 1.5478 2.5454 2.3392 4.333 2.3392h49.213c1.7872 0 3.4388-0.76753 4.3322-2.3158l24.606-42.527c0.89467-1.5474 0.89467-3.3622 4.2e-4 -4.9101m-20.375 20.585c0 0.62933-0.37887 1.2115-0.92443 1.5266l-31.343 18.083c-0.54513 0.31466-1.228 0.31466-1.7732 0l-31.367-18.083c-0.54513-0.31509-0.92656-0.89679-0.92656-1.5266v-36.167c0-0.62976 0.3759-1.2115 0.92146-1.5266l31.342-18.083c0.54513-0.31509 1.2272-0.31509 1.7723 0l31.37 18.083c0.54556 0.31509 0.92953 0.89679 0.92953 1.5266z" fill="#fff" stroke-width=".42522"/>
</g>
</svg>
