<?xml version="1.0" encoding="UTF-8"?>
<svg width="1920" height="1080" version="1.1" viewBox="0 0 508 285.75001" xmlns="http://www.w3.org/2000/svg" xmlns:cc="http://creativecommons.org/ns#" xmlns:dc="http://purl.org/dc/elements/1.1/" xmlns:rdf="http://www.w3.org/1999/02/22-rdf-syntax-ns#">
<metadata>
<rdf:RDF>
<cc:Work rdf:about="">
<dc:format>image/svg+xml</dc:format>
<dc:type rdf:resource="http://purl.org/dc/dcmitype/StillImage"/>
<dc:title/>
</cc:Work>
</rdf:RDF>
</metadata>
<rect x="4.4444e-6" y="2.6949e-6" width="508" height="285.75" fill="#1864ab"/>
<g transform="matrix(.89083 0 0 .89083 27.727 15.6)" stroke-width="2.3117">
<path d="m-13.097 174.08v-63.618h30.884l-0.92468 6.6577h-21.36v22.192h18.494v6.6577h-18.494v28.11z" fill="#fff"/>
<path d="m40.659 124.24q9.3393 0 14.517 6.5652 5.1782 6.5652 5.1782 18.863 0 11.836-5.2707 18.771-5.2707 6.8426-14.517 6.8426-9.3393 0-14.61-6.7502-5.1782-6.7502-5.1782-18.771 0-12.113 5.2707-18.771 5.2707-6.7502 14.61-6.7502zm0 6.6577q-5.4556 0-8.3221 4.6234-2.8665 4.5309-2.8665 14.24 0 18.956 11.096 18.956t11.096-19.048q0-9.7092-2.774-14.24-2.774-4.5309-8.2297-4.5309z" fill="#fff"/>
<path d="m94.049 124.24q5.8255 0 9.0619 3.8837 3.3288 3.7912 3.3288 10.541v35.415h-8.3221v-34.398q0-4.7159-1.572-6.7502-1.572-2.1268-4.8083-2.1268-6.1029 0-11.096 8.692v34.583h-8.3221v-48.638h7.2125l0.64728 7.2125q5.6406-8.4146 13.87-8.4146z" fill="#fff"/>
<path d="m144.11 171.95q-4.6234 3.3288-10.264 3.3288-5.918 0-9.1543-3.4213-3.1439-3.4213-3.1439-9.6167v-30.514h-6.9351v-6.2878h6.9351v-11.189l8.3221-1.0172v12.206h10.726l-0.92468 6.2878h-9.8016v30.422q0 6.2878 5.2707 6.2878 1.572 0 2.8665-0.46234 1.387-0.46234 3.0514-1.387z" fill="#fff"/>
<path d="m204.54 174.08-4.2535-16.182h-21.36l-4.2535 16.182h-8.5995l18.401-63.618h10.541l18.401 63.618zm-23.857-22.932h17.846l-8.8769-33.843z" fill="#63e6bf" fill-opacity=".94118"/>
<path d="m272.82 125.44-9.9866 48.638h-10.541l-7.9523-41.056-7.8598 41.056h-10.541l-10.171-48.638h8.2296l7.5824 42.35 8.5071-42.35h8.9694l8.2297 42.443 7.6748-42.443z" fill="#63e6bf" fill-opacity=".94118"/>
<path d="m316.12 148.28q0 1.9418-0.18493 4.346h-28.295q0.36987 8.5071 3.4213 12.298 3.0514 3.6987 8.3221 3.6987 3.3288 0 5.918-1.0172 2.6816-1.0172 5.5481-3.3288l3.6987 4.9008q-6.8426 6.1029-15.535 6.1029-9.5242 0-14.795-6.5652-5.1782-6.6577-5.1782-18.586t4.9933-18.863q4.9933-7.0276 13.87-7.0276 8.7845 0 13.5 6.2878 4.7159 6.1954 4.7159 17.754zm-8.0447-2.4966q0-15.257-10.079-15.257-4.6234 0-7.305 3.8837-2.6816 3.7912-3.0514 12.391h20.435z" fill="#63e6bf" fill-opacity=".94118"/>
<path d="m340.27 124.24q8.4146 0 14.98 5.5481l-3.5138 4.9008q-2.959-2.0343-5.5481-3.0514t-5.4556-1.0171q-3.7912 0-6.0104 1.8494-2.1268 1.7569-2.1268 4.9008 0 3.0514 2.0343 4.8083 2.1268 1.7569 7.9522 3.6062 7.305 2.3117 10.634 5.6406t3.3288 9.1543q0 6.8426-4.9933 10.819-4.9933 3.8837-12.483 3.8837-9.8941 0-16.737-6.5652l4.2535-4.6234q5.8255 4.7159 12.298 4.7159 4.0686 0 6.5652-2.0343t2.4966-5.6406q0-2.5891-0.92468-4.1611-0.83221-1.572-3.1439-2.774-2.2192-1.2946-6.5652-2.6816-6.9351-2.3117-9.9866-5.5481-3.0514-3.2364-3.0514-8.2297 0-3.8837 2.0343-6.9351t5.6406-4.8083 8.3221-1.7569z" fill="#63e6bf" fill-opacity=".94118"/>
<path d="m384.16 124.24q9.3393 0 14.517 6.5652 5.1782 6.5652 5.1782 18.863 0 11.836-5.2707 18.771-5.2707 6.8426-14.517 6.8426-9.3393 0-14.61-6.7502-5.1782-6.7502-5.1782-18.771 0-12.113 5.2707-18.771 5.2707-6.7502 14.61-6.7502zm0 6.6577q-5.4556 0-8.3221 4.6234-2.8665 4.5309-2.8665 14.24 0 18.956 11.096 18.956t11.096-19.048q0-9.7092-2.774-14.24-2.774-4.5309-8.2297-4.5309z" fill="#63e6bf" fill-opacity=".94118"/>
<path d="m460.76 124.24q5.2707 0 8.4146 3.9761 3.1439 3.8837 3.1439 10.449v35.415h-8.2297v-34.491q0-8.8769-5.733-8.8769-5.5481 0-10.171 8.5071v34.86h-8.2297v-34.491q0-8.8769-5.733-8.8769-5.6406 0-10.171 8.5071v34.86h-8.2297v-48.638h7.2125l0.64728 7.12q5.3631-8.3221 12.946-8.3221 3.9761 0 6.7502 2.3117 2.774 2.3117 3.9761 6.5652 5.6406-8.8769 13.408-8.8769z" fill="#63e6bf" fill-opacity=".94118"/>
<path d="m521.1 148.28q0 1.9418-0.18493 4.346h-28.295q0.36987 8.5071 3.4213 12.298 3.0514 3.6987 8.3221 3.6987 3.3288 0 5.918-1.0172 2.6816-1.0172 5.5481-3.3288l3.6987 4.9008q-6.8426 6.1029-15.535 6.1029-9.5242 0-14.795-6.5652-5.1782-6.6577-5.1782-18.586t4.9933-18.863q4.9933-7.0276 13.87-7.0276 8.7845 0 13.5 6.2878 4.7159 6.1954 4.7159 17.754zm-8.0447-2.4966q0-15.257-10.079-15.257-4.6234 0-7.305 3.8837-2.6816 3.7912-3.0514 12.391h20.435z" fill="#63e6bf" fill-opacity=".94118"/>
</g>
</svg>
