<?xml version="1.0" encoding="UTF-8"?>
<svg width="1920" height="1080" version="1.1" viewBox="0 0 508 285.75001" xmlns="http://www.w3.org/2000/svg" xmlns:cc="http://creativecommons.org/ns#" xmlns:dc="http://purl.org/dc/elements/1.1/" xmlns:rdf="http://www.w3.org/1999/02/22-rdf-syntax-ns#">
<metadata>
<rdf:RDF>
<cc:Work rdf:about="">
<dc:format>image/svg+xml</dc:format>
<dc:type rdf:resource="http://purl.org/dc/dcmitype/StillImage"/>
<dc:title/>
</cc:Work>
</rdf:RDF>
</metadata>
<g transform="translate(0 -11.25)">
<rect x="4.4444e-6" y="11.25" width="508" height="285.75" fill="#0594dc"/>
<path d="m123.23 201.61c0-0.21183 2.6234-1.3721 4.3052-1.904 3.1801-1.0058 3.899-1.0678 12.517-1.0802 6.5672-9e-3 8.1057-0.0554 9.647-0.28809 6.0434-0.91261 11.429-2.6712 16.333-5.3334 3.2004-1.7374 5.9559-3.8735 7.9736-6.1813 1.1507-1.3162 1.4771-1.9787 0.97524-1.9787-0.1274 0-1.6875 0.57941-3.4681 1.2876-5.0476 2.0075-7.8104 2.6953-12.884 3.2078-2.5864 0.26124-11.097 0.25938-13.793-3e-3 -3.7458-0.36458-7.7335-1.0434-7.7335-1.3165 0-0.0804 0.66371-0.14636 1.475-0.14636 6.6008-3.9e-4 15.109-1.0364 20.523-2.4988 11.084-2.9943 18.752-8.4935 24.673-17.696 0.14712-0.22945 0.19202 3.5316 0.1993 16.886l0.0152 17.181h-30.376c-16.709 0-30.376-0.0613-30.376-0.13635zm89.214 0.0308c-4.4517-0.53698-7.7802-1.7088-10.51-3.7002-4.8167-3.5136-7.7315-8.7252-8.7964-15.727-0.35627-2.3424-0.36279-7.3375-0.0152-9.6824 0.82053-5.4951 2.8799-9.8693 6.2383-13.25 4.3601-4.3895 9.4806-6.3973 16.828-6.5982 4.2938-0.11739 7.9607 0.42695 12.405 1.8416l1.8661 0.59397 0.044 2.9043c0.0243 1.5974 0 2.9043-0.0576 2.9043-0.0561 0-0.70193-0.36296-1.4365-0.80658-2.452-1.4812-5.1143-2.5533-7.7549-3.1232-1.9857-0.4285-5.7927-0.38984-7.6869 0.0781-2.7533 0.68009-5.3151 2.1792-7.1987 4.2124-3.2542 3.5126-4.7213 7.9361-4.9573 14.947-0.22629 6.7218 1.0315 12.127 3.692 15.866 0.90108 1.2664 2.8424 3.0943 4.0179 3.7833 4.2107 2.4677 9.6775 2.684 14.047 0.55576l0.99981-0.48699-0.0152-10.457-0.0152-10.457 3.9533-0.0426 3.9531-0.0426-0.0455 10.487c-0.0364 8.2853-4.5e-4 10.747 0.17063 11.727 0.15288 0.87522 0.16638 1.2794 0.0455 1.3738-0.22311 0.17495-5.6203 1.8051-7.6648 2.3152-2.5931 0.64688-5.0115 0.8936-8.499 0.86707-1.7277-0.0137-3.3563-0.0499-3.6195-0.0816zm77.547-0.13347c-3.5336-0.67092-6.2285-2.5422-7.5448-5.2392-1.1589-2.3741-1.0964-1.4728-1.2061-17.403-0.0546-7.8929-0.12892-14.494-0.16532-14.67-0.0652-0.31183 0.0182-0.3189 3.7276-0.3189h3.794l-0.0152 13.501c0 8.9298 0.047 13.756 0.15773 14.252 0.7039 3.1411 3.1556 4.8583 6.9278 4.8522 4.1318-6e-3 7.2113-2.0955 8.1592-5.534 0.27908-1.0123 0.29803-1.86 0.29803-13.359 0-6.7528-0.0349-12.601-0.0774-12.995l-0.0758-0.71752h7.5718v37.152h-7.1033l-0.044-2.1495c-0.0243-1.1823-0.10465-2.2092-0.17745-2.2821-0.0728-0.073-0.87787 0.6113-1.7888 1.5205-1.8627 1.8589-2.7648 2.4126-5.0094 3.0749-1.1959 0.3529-1.8232 0.43241-3.8225 0.48458-1.6653 0.0434-2.763-8e-3 -3.6142-0.16969zm84.377-0.0622c-2.5082-0.3958-4.0922-0.86297-6.0181-1.775-5.1034-2.4166-8.6895-6.6206-10.64-12.473-1.4595-4.3797-1.8737-9.9088-1.1211-14.962 1.0614-7.1274 4.4642-12.542 10.126-16.114 5.1713-3.262 12.679-4.3048 20.455-2.841 1.735 0.32659 5.0182 1.2238 6.1812 1.6892l0.62943 0.25188v2.7637c0 1.5446-0.0652 2.8044-0.14863 2.856-0.0819 0.0508-0.60228-0.20216-1.156-0.56202-3.7373-2.4287-8.634-3.8229-12.647-3.6008-4.1447 0.22941-7.4474 1.6908-10.077 4.4586-2.6093 2.747-3.8656 5.4528-4.7016 10.126-0.49187 2.7505-0.53388 9.338-0.0773 12.053 1.4542 8.6381 6.0674 13.677 13.257 14.481 2.8682 0.32051 6.0639-0.23449 8.2953-1.4406l0.79718-0.43097 0.0288-10.443 0.0303-10.443 3.9565-0.0426 3.9566-0.0426v10.885c0 5.9869 0.0622 11.293 0.1365 11.792l0.1365 0.90677-2.2893 0.72432c-3.1939 1.0105-6.1807 1.8114-7.8702 2.1102-2.2706 0.40167-8.8876 0.44497-11.241 0.0736zm-133.35-0.45345c-0.0364-0.0673 0-0.80411 0.0743-1.6372 0.13498-1.4464 0.094-34.496-0.0425-35.159-0.0652-0.31041 0.0288-0.32005 3.5101-0.3619 2.7548-0.0331 3.6058 3e-3 3.7048 0.15945 0.0713 0.11133 0.13347 1.207 0.13954 2.4348l0.0152 2.2323 0.50551-0.63782c1.2628-1.5938 2.9096-3.0559 4.1019-3.6419 3.1232-1.5348 7.406-1.9092 11.067-0.96734 3.4139 0.87843 5.9781 3.2065 7.0085 6.3632 0.51249 1.5701 0.57103 3.291 0.58605 17.253l0.0152 14-3.7174 0.0426-3.7176 0.0426 0.0485-13.357c0.0516-14.177 0.0258-14.75-0.69753-16.253-1.1371-2.3586-3.8732-3.6072-7.3286-3.3443-3.998 0.30424-6.4922 2.3455-7.5269 6.1601-0.25678 0.94654-0.2812 2.0668-0.2812 12.916 0 6.5336 0.0364 12.31 0.0804 12.836l0.0804 0.95671-3.7758 0.0428c-2.0767 0.0235-3.806-0.0121-3.843-0.0798zm80.517-3e-3c-0.0379-0.0658 0-0.59421 0.0743-1.1743 0.13802-1.005 0.10162-45.208-0.0379-46.063l-0.0652-0.39862 9.009 5e-3c8.77 5e-3 9.053 0.0136 10.671 0.36739 3.3628 0.7341 5.4584 1.8089 7.5137 3.8535 1.0948 1.0891 1.4921 1.6216 2.0236 2.7107 1.071 2.1945 1.2335 3.0123 1.236 6.2186 0 3.2514-0.16228 4.0698-1.2687 6.2984-1.4964 3.0145-4.3417 5.2779-8.297 6.6003-2.4035 0.80359-3.9079 1.0016-8.4503 1.112l-4.1458 0.10086v20.49l-4.0965-5e-5c-2.2532-3e-5 -4.128-0.0538-4.1667-0.11967zm15.83-24.495c2.3742-0.67801 4.141-2.1283 5.3153-4.3629 0.89197-1.6974 1.2296-3.2194 1.2296-5.544 0-3.369-0.6766-5.2194-2.6283-7.1876-1.1964-1.2066-2.2153-1.7981-3.8295-2.2232-1.0315-0.27165-6.5549-0.52587-7.3097-0.33644l-0.42377 0.10632v9.8564c0 5.421 0.0531 9.912 0.11982 9.9798 0.21901 0.22599 6.5788-0.0179 7.5268-0.28857zm-225.03-0.36616c-0.15016-0.15015-0.12892-23.211 0.0228-23.448 0.0865-0.1359 0.84586-0.20829 2.5089-0.23919l2.3852-0.0443 0.0895-9.2482c0.1001-10.315 0.15167-10.883 1.3242-14.749 3.7418-12.336 14.614-20.987 27.438-21.832 9.1769-0.60452 17.757 2.7097 24.168 9.3353 5.1331 5.3048 7.9968 11.668 8.6014 19.112 0.17639 2.1729 0.23327 16.781 0.0667 17.214-0.0546 0.14151-0.70845 0.61742-1.4538 1.0576-8.7523 5.1696-19.497 7.8693-37.404 9.3983-6.8694 0.58654-10.869 1.5383-15.329 3.6476-4.1961 1.9844-8.5953 5.4486-11.312 8.9077-0.77716 0.98942-0.90335 1.0908-1.106 0.88804zm52.445-24.04c0.0531-0.21334 0.0652-4.106 0.0243-8.6503-0.0804-9.098-0.0956-9.2505-1.1427-12.048-0.84086-2.2452-1.8719-3.8146-3.7564-5.7174-2.5453-2.5701-5.0211-3.9302-8.451-4.6426-2.1962-0.45621-5.6994-0.34162-7.7334 0.25291-6.4962 1.8989-11.075 7.1858-12.032 13.893-0.17579 1.2315-0.23039 17.023-0.0592 17.194 0.0576 0.0584 7.5194 0.10632 16.58 0.10632h16.474zm-38.275-26.816c4.4914-6.2591 10.533-10.391 17.933-12.265 4.9015-1.2414 11.049-1.1098 15.985 0.34214 0.15349 0.0452 0.27907 0.0158 0.27907-0.0651 0-0.0808-0.62776-0.43769-1.3952-0.7929-4.7288-2.1889-10.763-2.8204-16.224-1.6979-3.1027 0.63771-7.0963 2.4015-9.8035 4.3298-4.7529 3.3854-8.4558 8.6786-10.059 14.379-0.83297 2.9616-0.61821 2.9453 0.88803-0.0675 0.74546-1.4909 1.824-3.364 2.397-4.1625zm22.911 50.653c-2.191-0.21076-1.9578-0.31983 1.3788-0.64478 11.251-1.0958 22.172-6.2977 30.888-14.713 1.0673-1.0305 2.0213-1.8736 2.1199-1.8736 0.1274 0 0.17927 1.1838 0.17927 4.1488v4.1488l-0.37023-0.093c-0.6-0.1506-1.7744 0.39686-6.0071 2.8003-2.2 1.2491-4.6249 2.5405-5.3887 2.8696-3.5761 1.541-7.2051 2.4669-12.232 3.1206-2.0725 0.26958-8.6852 0.41731-10.569 0.23611z" fill="#fff" stroke-width=".15945"/>
</g>
</svg>
