<?xml version="1.0" encoding="UTF-8"?>
<svg width="1920" height="1080" version="1.1" viewBox="0 0 508 285.75001" xmlns="http://www.w3.org/2000/svg" xmlns:cc="http://creativecommons.org/ns#" xmlns:dc="http://purl.org/dc/elements/1.1/" xmlns:rdf="http://www.w3.org/1999/02/22-rdf-syntax-ns#">
<metadata>
<rdf:RDF>
<cc:Work rdf:about="">
<dc:format>image/svg+xml</dc:format>
<dc:type rdf:resource="http://purl.org/dc/dcmitype/StillImage"/>
<dc:title/>
</cc:Work>
</rdf:RDF>
</metadata>
<rect x="4.4444e-6" y="2.6949e-6" width="508" height="285.75" fill="#00968f" fill-opacity=".94118"/>
<g transform="matrix(.89083 0 0 .89083 27.727 15.6)" fill="#fff">
<path d="m188.25 127.02v57.809h-9.6531v-57.809zm-4.9362-27.423q2.9617 0 4.7168 1.8648t1.7551 4.8265q0 2.7423-1.8648 4.6071-1.7551 1.8648-4.6071 1.8648t-4.7168-1.8648q-1.7551-1.8648-1.7551-4.6071 0-2.852 1.7551-4.7168 1.8648-1.9745 4.7168-1.9745z"/>
<path d="m225.92 111.45v73.385h-9.5434v-63.184l-13.712 10.092-4.3878-6.2526 19.087-14.041z"/>
<path d="m268.3 145.56q7.0204 3.1811 10.311 8.1173 3.4005 4.8265 3.4005 11.628 0 9.4337-5.9235 15.138-5.9235 5.7041-15.686 5.7041-9.6531 0-15.467-5.5944-5.7041-5.7041-5.7041-15.028 0-6.9107 3.1811-11.628 3.2908-4.7168 9.653-7.6786-5.4847-3.0714-7.898-7.1301-2.4133-4.1684-2.4133-9.8724 0-6.0332 2.523-10.311 2.6326-4.2781 6.9107-6.3622 4.2781-2.1939 9.4337-2.1939 8.0076 0 13.492 4.8265 5.4847 4.7168 5.4847 13.712 0 5.5944-2.7423 9.653-2.6326 3.949-8.5561 7.0204zm-7.6786-28.082q-4.6071 0-7.1301 2.7423-2.4133 2.7424-2.4133 9.1046 0 5.2653 2.3036 8.0076 2.4133 2.7424 7.7882 5.1556l1.5357 0.65816q4.1684-2.7423 5.8138-5.9235 1.7551-3.1811 1.7551-8.0076 0-6.1428-2.4133-8.8852-2.4133-2.852-7.2398-2.852zm0 61.209q11.737 0 11.737-13.273 0-5.9235-2.7423-9.2143-2.6326-3.4005-9.5434-6.3622l-2.1939-0.98725q-4.7168 2.523-6.801 6.5816-2.0842 3.949-2.0842 10.092 0 13.163 11.628 13.163z"/>
<path d="m317.45 125.82q6.2526 0 9.9821 4.4974 3.7296 4.4974 3.7296 12.066v42.452h-9.653v-41.135q0-5.5944-1.6454-7.898-1.5357-2.4133-4.7168-2.4133-6.2526 0-11.628 10.75v40.696h-9.6531v-57.809h8.3367l0.76786 8.6658q2.852-4.8265 6.2526-7.3495 3.4005-2.523 8.227-2.523z"/>
</g>
</svg>
