<?xml version="1.0" encoding="UTF-8"?>
<svg width="1920" height="1080" version="1.1" viewBox="0 0 508 285.75001" xmlns="http://www.w3.org/2000/svg" xmlns:cc="http://creativecommons.org/ns#" xmlns:dc="http://purl.org/dc/elements/1.1/" xmlns:rdf="http://www.w3.org/1999/02/22-rdf-syntax-ns#">
<metadata>
<rdf:RDF>
<cc:Work rdf:about="">
<dc:format>image/svg+xml</dc:format>
<dc:type rdf:resource="http://purl.org/dc/dcmitype/StillImage"/>
<dc:title/>
</cc:Work>
</rdf:RDF>
</metadata>
<g transform="translate(0 -11.25)">
<rect x="4.4444e-6" y="11.25" width="508" height="285.75" fill="#f7df1e"/>
<g transform="matrix(3.0056 0 0 3.0056 -1873.4 286.6)" stroke-width=".26458">
<path d="m685.47-34.049 5.1834-3.1369c0.99999 1.773 1.9096 3.2731 4.0916 3.2731 2.0916 0 3.4102-0.81818 3.4102-4.0006v-21.642h6.3652v21.732c0 6.5927-3.8644 9.5935-9.5026 9.5935-5.0919 0-8.0477-2.6372-9.548-5.8197"/>
<path d="m707.97-34.732 5.1828-3.0008c1.3644 2.2281 3.1376 3.8648 6.2746 3.8648 2.6374 0 4.3192-1.3186 4.3192-3.1373 0-2.1824-1.7276-2.9554-4.6376-4.2281l-1.5909-0.6825c-4.5924-1.9547-7.6388-4.4099-7.6388-9.5932 0-4.774 3.6373-8.4115 9.3209-8.4115 4.0466 0 6.9564 1.4096 9.0477 5.0925l-4.9559 3.1825c-1.0913-1.9549-2.273-2.7277-4.0916-2.7277-1.8642 0-3.0464 1.1821-3.0464 2.7277 0 1.9097 1.1822 2.6828 3.9099 3.865l1.5912 0.68196c5.4106 2.319 8.457 4.683 8.457 10.002 0 5.7292-4.5012 8.8661-10.548 8.8661-5.9106 0-9.73-2.8188-11.594-6.5018"/>
</g>
</g>
</svg>
