<?xml version="1.0" encoding="UTF-8"?>
<svg width="1920" height="1080" version="1.1" viewBox="0 0 508 285.75001" xmlns="http://www.w3.org/2000/svg" xmlns:cc="http://creativecommons.org/ns#" xmlns:dc="http://purl.org/dc/elements/1.1/" xmlns:rdf="http://www.w3.org/1999/02/22-rdf-syntax-ns#" xmlns:xlink="http://www.w3.org/1999/xlink">
<defs>
<style type="text/css"><![CDATA[
    .fil3 {fill:none}
    .fil5 {fill:#FEFEFE}
    .fil2 {fill:#10814B}
    .fil1 {fill:#56991C}
    .fil0 {fill:#70C836}
    .fil4 {fill:#FEFEFE;fill-rule:nonzero}
   ]]></style>
</defs>
<metadata>
<rdf:RDF>
<cc:Work rdf:about="">
<dc:format>image/svg+xml</dc:format>
<dc:type rdf:resource="http://purl.org/dc/dcmitype/StillImage"/>
<dc:title/>
</cc:Work>
</rdf:RDF>
</metadata>
<rect x="4.4444e-6" y="2.6949e-6" width="508" height="285.75" fill="#090"/>
<g transform="matrix(.58824 0 0 .58824 104.59 52.213)">
<path id="d" d="m49.232 189.49v-70.915l70.907 70.915v-70.915" fill="none" stroke="#fff" stroke-linecap="round" stroke-linejoin="round" stroke-width="18.598"/>
<path d="m163.2 109.37-2.5573 4.7659-19.761 35.918-2.5573 4.5334 2.5573 4.5334 19.761 34.756 2.6735 4.7658h51.727l2.5573-5.2308 14.763-29.758 6.6257-13.484h-14.995l-37.778 0.11624c-4.9129-0.0695-9.4317 4.3858-9.4317 9.2992 0 4.9134 4.5188 9.3687 9.4317 9.2992l22.783-0.11624-5.5795 11.275h-29.293l-14.53-25.573 14.646-26.503h31.161l7.265 14.908h18.715l-11.798-28.275-2.5573-5.2308h-48.248z" fill="#fff" stroke-width="3.7197"/>
<path d="m257.41 109.25c-4.869 0.0609-9.2438 4.5464-9.183 9.4155v24.232h18.598v-24.232c0.0617-4.9465-4.469-9.4772-9.4155-9.4155z" fill="#fff" stroke-width="3.7197"/>
<g transform="matrix(.94444 0 0 .94444 11.475 161.18)" fill="none" stroke="#fff">
<use transform="matrix(-1.0588 0 0 1.0588 419.17 -170.47)" width="744.09448" height="1052.3622" fill="none" stroke="#ffffff" xlink:href="#d"/>
</g>
<g transform="matrix(3.7197 0 0 3.7197 -2.6283 68.984)">
<path id="c" d="m104.91 13.374 19.085 19.018" fill="#fff" stroke="#fff" stroke-linecap="round" stroke-linejoin="round" stroke-width="5"/>
<use transform="matrix(-1 0 0 1 228.93 0)" width="744.09448" height="1052.3622" fill="#ffffff" stroke="#ffffff" xlink:href="#c"/>
</g>
<path d="m257.41 198.7c-4.869-0.0609-9.2438-4.5464-9.183-9.4155v-38.924h18.598v38.924c0.0617 4.9465-4.469 9.4772-9.4155 9.4155z" fill="#fff" stroke-width="3.7197"/>
</g>
</svg>
