<?xml version="1.0" encoding="UTF-8"?>
<svg width="1920" height="1080" version="1.1" viewBox="0 0 508 285.75001" xmlns="http://www.w3.org/2000/svg" xmlns:cc="http://creativecommons.org/ns#" xmlns:dc="http://purl.org/dc/elements/1.1/" xmlns:rdf="http://www.w3.org/1999/02/22-rdf-syntax-ns#">
<metadata>
<rdf:RDF>
<cc:Work rdf:about="">
<dc:format>image/svg+xml</dc:format>
<dc:type rdf:resource="http://purl.org/dc/dcmitype/StillImage"/>
<dc:title/>
</cc:Work>
</rdf:RDF>
</metadata>
<rect x="4.4444e-6" y="2.6949e-6" width="508" height="285.75" fill="#282c34" fill-opacity=".94118"/>
<g transform="matrix(.89083 0 0 .89083 27.727 15.6)" fill="#61dafb">
<g fill="#61dafb" stroke-width="3.0809" aria-label="React">
<path d="m161.54 184.46-18.239-36.108h-11.954v36.108h-11.461v-84.787h19.841q30.316 0 30.316 23.908 0 8.3801-4.0668 14.172-4.0668 5.7921-11.954 8.5033l20.211 38.203zm-20.95-44.858q8.873 0 13.186-3.8203 4.3133-3.9436 4.3133-12.2 0-7.7639-4.4365-11.461-4.3133-3.6971-14.172-3.6971h-8.1336v31.179z"/>
<path d="m230.09 150.08q0 2.588-0.24647 5.7921h-37.71q0.49294 11.338 4.5598 16.39 4.0668 4.9295 11.091 4.9295 4.4365 0 7.8871-1.3556 3.5739-1.3556 7.3942-4.4365l4.9294 6.5315q-9.1195 8.1336-20.704 8.1336-12.693 0-19.718-8.7498-6.9012-8.873-6.9012-24.771 0-15.898 6.6548-25.14 6.6548-9.366 18.485-9.366 11.707 0 17.993 8.3801 6.285 8.2568 6.285 23.661zm-10.722-3.3274q0-20.334-13.433-20.334-6.1618 0-9.7357 5.1759-3.5739 5.0527-4.0668 16.514h27.235z"/>
<path d="m284.73 169.68q0 3.9436 1.1091 5.9153 1.1091 1.8486 3.4506 2.8344l-2.3415 7.5174q-4.8062-0.73942-7.5174-2.9577-2.7112-2.2183-3.8203-6.778-6.2851 9.8589-17.623 9.8589-8.6266 0-13.679-5.2992-5.0527-5.4224-5.0527-14.419 0-10.352 6.778-15.774t19.348-5.4224h8.3801v-5.5456q0-6.778-2.8344-9.7357-2.7112-3.0809-8.9963-3.0809-6.778 0-15.774 3.4506l-2.7112-7.7639q10.845-4.4365 20.211-4.4365 21.073 0 21.073 21.073zm-24.154 8.0104q8.6266 0 13.186-10.105v-15.281h-7.1477q-16.021 0-16.021 13.433 0 5.7921 2.588 8.873 2.588 3.0809 7.3942 3.0809z"/>
<path d="m327.28 118.04q5.1759 0 9.4892 1.7253 4.3133 1.7253 8.2568 5.2992l-4.9294 6.6548q-2.9577-2.3415-5.9154-3.4506-2.9577-1.2324-6.4083-1.2324-7.2709 0-11.338 6.1618-3.9436 6.1618-3.9436 19.225 0 24.401 15.281 24.401 3.4506 0 6.2851-1.1091 2.8344-1.2324 6.0386-3.5739l5.1759 6.778q-7.8871 7.1477-17.869 7.1477-12.447 0-19.595-8.6266-7.0245-8.6266-7.0245-24.894 0-10.598 3.2042-18.362 3.3274-7.7639 9.2427-11.954 6.0386-4.19 14.049-4.19z"/>
<path d="m388.12 181.63q-6.1618 4.4365-13.679 4.4365-7.8871 0-12.2-4.5598-4.19-4.5598-4.19-12.817v-40.668h-9.2427v-8.3801h9.2427v-14.912l11.091-1.3556v16.267h14.295l-1.2324 8.3801h-13.063v40.545q0 8.3801 7.0245 8.3801 2.095 0 3.8203-0.61618 1.8485-0.61618 4.0668-1.8485z"/>
</g>
</g>
</svg>
