<?xml version="1.0" encoding="UTF-8"?>
<svg width="1920" height="1080" version="1.1" viewBox="0 0 508 285.75001" xmlns="http://www.w3.org/2000/svg" xmlns:cc="http://creativecommons.org/ns#" xmlns:dc="http://purl.org/dc/elements/1.1/" xmlns:rdf="http://www.w3.org/1999/02/22-rdf-syntax-ns#">
<defs>
<style type="text/css"><![CDATA[
    .fil3 {fill:none}
    .fil5 {fill:#FEFEFE}
    .fil2 {fill:#10814B}
    .fil1 {fill:#56991C}
    .fil0 {fill:#70C836}
    .fil4 {fill:#FEFEFE;fill-rule:nonzero}
   ]]></style>
</defs>
<metadata>
<rdf:RDF>
<cc:Work rdf:about="">
<dc:format>image/svg+xml</dc:format>
<dc:type rdf:resource="http://purl.org/dc/dcmitype/StillImage"/>
<dc:title/>
</cc:Work>
</rdf:RDF>
</metadata>
<g transform="translate(0 -11.25)">
<rect x="4.4444e-6" y="11.25" width="508" height="285.75" fill="#70c836"/>
<g transform="translate(-27.347)" clip-rule="evenodd" fill="#fefefe" shape-rendering="geometricPrecision">
<path class="fil4" d="m250.75 167.39c3.064 3.447 6.08 6.0321 9.0482 7.8035 2.9682 1.6756 5.9364 2.5373 8.9046 2.5373 2.7288 0 5.0268-0.71809 6.7502-2.2022 1.8192-1.4841 2.6809-3.3512 2.6809-5.6013 0-2.5373-0.76597-4.4523-2.2979-5.8406-1.532-1.3404-4.9789-2.7288-10.389-4.2129-7.3726-1.9628-12.639-4.5959-15.703-7.7556-3.0639-3.2076-4.596-7.612-4.596-13.165 0-7.229 2.3937-13.117 7.2769-17.713 4.8352-4.548 11.107-6.7981 18.814-6.7981 4.165 0 8.0908 0.52663 11.825 1.6277 3.7342 1.149 7.2768 2.8246 10.628 5.1225l-6.463 14.793c-2.3458-2.0107-4.7395-3.4948-7.1811-4.5002-2.4416-1.0054-4.8831-1.5319-7.3247-1.5319-2.4416 0-4.4523 0.62234-5.9842 1.7713-1.5798 1.1968-2.3459 2.7288-2.3459 4.5959 0 1.8671 0.67024 3.399 2.0107 4.548 1.3883 1.1011 3.9735 2.2022 7.8513 3.2076l0.95748 0.28715c8.378 2.2501 13.931 4.7395 16.564 7.4683 1.8192 1.8671 3.1597 4.1172 4.1172 6.7024 0.90964 2.5852 1.3884 5.4577 1.3884 8.6173 0 8.0428-2.6331 14.506-7.8992 19.341-5.2661 4.8831-12.304 7.3247-21.065 7.3247-5.2662 0-10.101-0.9096-14.41-2.6809-4.3087-1.8192-8.4737-4.5959-12.447-8.4258z" image-rendering="optimizeQuality" stroke-width=".047874"/>
<path class="fil4" d="m312.18 167.39c3.0639 3.447 6.08 6.0321 9.0482 7.8035 2.9682 1.6756 5.9364 2.5373 8.9046 2.5373 2.7288 0 5.0268-0.71809 6.7502-2.2022 1.8192-1.4841 2.681-3.3512 2.681-5.6013 0-2.5373-0.76598-4.4523-2.298-5.8406-1.532-1.3404-4.9789-2.7288-10.389-4.2129-7.3726-1.9628-12.639-4.5959-15.703-7.7556-3.0639-3.2076-4.5959-7.612-4.5959-13.165 0-7.229 2.3937-13.117 7.2769-17.713 4.8353-4.548 11.107-6.7981 18.814-6.7981 4.165 0 8.0907 0.52663 11.825 1.6277 3.782 1.149 7.2768 2.8246 10.628 5.1225l-6.463 14.793c-2.3459-2.0107-4.7395-3.4948-7.1811-4.5002-2.4416-1.0054-4.8831-1.5319-7.3247-1.5319-2.4416 0-4.4523 0.62234-5.9842 1.7713-1.5799 1.1968-2.3459 2.7288-2.3459 4.5959 0 1.8671 0.67025 3.399 2.0107 4.548 1.3883 1.1011 3.9736 2.2022 7.8513 3.2076l0.95748 0.28715c8.4258 2.2501 13.931 4.7395 16.564 7.4683 1.8192 1.8671 3.1597 4.1172 4.1172 6.7024 0.90964 2.5852 1.3884 5.4577 1.3884 8.6173 0 8.0428-2.6331 14.506-7.8992 19.341-5.2662 4.8831-12.304 7.3247-21.065 7.3247-5.2662 0-10.054-0.9096-14.41-2.6809-4.3086-1.8192-8.4737-4.5959-12.447-8.4258z" image-rendering="optimizeQuality" stroke-width=".047874"/>
<polygon class="fil4" transform="matrix(.047874 0 0 .047874 28.763 -250.72)" points="8098 9246 7132 9246 7132 7667 7563 7667 7563 8877 8098 8877" image-rendering="optimizeQuality"/>
<path class="fil5" d="m216.06 136.92h1.5944c1.0548 0 1.9379 0.88307 1.9379 1.9624v56.91c0 3.287-2.6738 5.9608-5.9362 5.9608h-61.448c-3.287 0-5.9608-2.6738-5.9608-5.9608v-56.91c0-1.0793 0.8831-1.9624 1.9624-1.9624h1.5699c1.4473-17.024 15.724-30.417 33.14-30.417 17.416 0 31.717 13.393 33.14 30.417zm-29.951 37.555v13.933h-6.3533v-13.933c-2.6247-1.202-4.4399-3.8512-4.4399-6.8929 0-4.2192 3.4097-7.6043 7.6043-7.6043 4.1946 0 7.6043 3.3851 7.6043 7.6043 0 3.0417-1.8152 5.691-4.4154 6.8929zm-24.26-30.613h42.167v-4.9796c0-1.0793 0.85856-1.9624 1.9379-1.9624h2.6492c-1.3982-12.927-12.363-22.985-25.683-22.985-13.295 0-24.26 10.057-25.683 22.985h2.6492c1.0793 0 1.9624 0.88307 1.9624 1.9624z" fill-rule="evenodd" image-rendering="optimizeQuality" stroke-width=".02453"/>
</g>
</g>
</svg>
