<?xml version="1.0" encoding="UTF-8"?>
<svg width="1920" height="1080" version="1.1" viewBox="0 0 508 285.75001" xmlns="http://www.w3.org/2000/svg" xmlns:cc="http://creativecommons.org/ns#" xmlns:dc="http://purl.org/dc/elements/1.1/" xmlns:rdf="http://www.w3.org/1999/02/22-rdf-syntax-ns#">
<defs>
<style type="text/css"><![CDATA[
    .fil3 {fill:none}
    .fil5 {fill:#FEFEFE}
    .fil2 {fill:#10814B}
    .fil1 {fill:#56991C}
    .fil0 {fill:#70C836}
    .fil4 {fill:#FEFEFE;fill-rule:nonzero}
   ]]></style>
</defs>
<metadata>
<rdf:RDF>
<cc:Work rdf:about="">
<dc:format>image/svg+xml</dc:format>
<dc:type rdf:resource="http://purl.org/dc/dcmitype/StillImage"/>
<dc:title/>
</cc:Work>
</rdf:RDF>
</metadata>
<rect x="4.4444e-6" y="2.6949e-6" width="508" height="285.75" fill="#143423"/>
<g fill="#00cf3d" stroke-width="3.3165" aria-label="systemd">
<path d="m117.83 120.85v-8.3576q0-5.7044-5.5717-5.7044h-1.9899q-5.4391 0-5.4391 5.7044v15.787q0 2.6532 1.0613 3.5818 1.0613 0.92863 3.4492 2.3879l12.072 6.5004q3.9798 2.2552 5.5717 3.5818 1.7246 1.1939 2.6532 3.0512 0.92862 1.7246 0.92862 6.7657v20.297q0 16.052-15.389 16.052h-7.827q-15.256 0-15.256-17.511v-4.7758h12.735v5.1738q0 5.5717 5.7044 5.5717h2.2552q5.0411 0 5.0411-5.5717v-16.185q0-2.6532-1.0613-3.5818t-3.4492-2.3879l-12.072-6.7657q-3.9798-2.1226-5.837-3.5818-1.7246-1.4593-2.5205-3.7145-0.79596-2.3879-0.79596-6.1024v-19.501q0-16.317 15.256-16.317h7.9596q15.256 0 15.256 16.317v9.2862z"/>
<path d="m162.25 190.5h-12.735v-35.022l-15.654-60.228h12.603l9.5515 41.39h0.39799l8.6229-41.39h12.603l-15.389 60.228z"/>
<path d="m208.39 120.85v-8.3576q0-5.7044-5.5717-5.7044h-1.9899q-5.4391 0-5.4391 5.7044v15.787q0 2.6532 1.0613 3.5818 1.0613 0.92863 3.4492 2.3879l12.072 6.5004q3.9798 2.2552 5.5717 3.5818 1.7246 1.1939 2.6532 3.0512 0.92862 1.7246 0.92862 6.7657v20.297q0 16.052-15.389 16.052h-7.827q-15.256 0-15.256-17.511v-4.7758h12.735v5.1738q0 5.5717 5.7044 5.5717h2.2552q5.0411 0 5.0411-5.5717v-16.185q0-2.6532-1.0613-3.5818t-3.4492-2.3879l-12.072-6.7657q-3.9798-2.1226-5.837-3.5818-1.7246-1.4593-2.5205-3.7145-0.79596-2.3879-0.79596-6.1024v-19.501q0-16.317 15.256-16.317h7.9596q15.256 0 15.256 16.317v9.2862z"/>
<path d="m252.08 106.79v83.709h-12.735v-83.709h-12.205v-11.541h37.145v11.541z"/>
<path d="m271.42 190.5v-95.25h31.573v11.541h-18.838v28.92h16.715v11.541h-16.715v31.706h18.838v11.541z"/>
<path d="m337.97 151.23 11.807-55.983h14.062v95.25h-12.735l1.3266-62.35-9.5515 45.104h-9.8168l-9.5515-45.104 1.3266 62.35h-12.735v-95.25h14.062z"/>
<path d="m375.84 190.5v-95.25h22.154q17.909 0 17.909 18.307v63.146q0 13.797-15.256 13.797zm12.735-11.541h9.5515q5.0411 0 5.0411-4.2451v-61.024q0-6.8983-5.7044-6.8983h-8.8882z"/>
</g>
</svg>
